<svg xmlns="http://www.w3.org/2000/svg" viewBox="0 0 299.40001 29.7">
  <defs>

  

    <g id="logo">
      <g>
        <g>
          <path class="cls-2" d="M160.02195,12.15521c.59676-.01447.99514-.01447.99514-.39799,0-.25195-.21294-.77054-.45193-1.37859l-.34474-.88901h-3.39386l-.35921.84841c-.18392.44981-.34398.92817-.34398,1.26095,0,.35747.26641.54177.71621.55624h.35701v.38459h-2.86284v-.38459c.6757,0,.9284-.3458,1.36594-1.39343l2.58628-6.21989c.21219-.50404.40914-1.00847.56927-1.57773h1.18118c.17165.66305.3708,1.2736.60987,1.88339l2.45372,6.35245c.15793.4236.37079.95522.88726.95522h.27808v.38459h-4.2434v-.38459ZM158.58943,5.23213l-1.57743,3.79223h3.03609l-1.45865-3.79223Z"/>
          <g>
            <path class="cls-2" d="M164.40292,12.15521h.45268c.39686,0,.5301-.17309.5301-.90204v-4.07175c0-.73039-.13325-.90204-.5301-.90204h-.45268v-.38459h1.39342c.49109,0,.9684-.0934,1.41881-.2118v1.18012h.02614c.53161-.75645,1.1689-1.18012,2.14957-1.18012.90098,0,1.5644.33133,1.81567,1.18012.56996-.82129,1.1146-1.18012,2.21548-1.18012,1.30003,0,1.93513.78106,1.93513,1.88309v3.68709c0,.72895.13408.90204.53162.90204h.29119v.38459h-3.55467v-.38459h.2927c.39905,0,.5301-.17309.5301-.90204v-3.34129c0-.64964,0-1.40616-.84879-1.40616-1.27322,0-1.27322,1.45828-1.27322,2.2807v2.46674c0,.72895.13249.90204.5301.90204h.29262v.38459h-3.55459v-.38459h.29254c.39769,0,.52874-.17309.52874-.90204v-3.34129c0-.64964,0-1.40616-.84886-1.40616-1.27034,0-1.27034,1.45828-1.27034,2.2807v2.46674c0,.72895.13112.90204.53018.90204h.29111v.38459h-3.71465v-.38459Z"/>
            <path class="cls-2" d="M176.97009,10.36568h.42367c.26513,1.12649.88795,1.9221,2.13511,1.9221.6779,0,1.32533-.39762,1.32533-1.07369,0-.84841-.66191-1.03422-1.93588-1.32685-.97991-.22596-1.94823-.55624-1.94823-1.92323,0-1.57781,1.153-2.281,2.6109-2.281.59828,0,1.0212.2118,1.46009.2118.35641,0,.55699-.10643.71555-.2118h.07976v2.13541h-.42451c-.13172-.87484-.84879-1.67151-1.77582-1.67151-.65039,0-1.31306.2393-1.31306,1.04763,0,.6757.34398.76948,1.88378,1.128,1.17837.26505,2.08147.63699,2.08147,2.1742,0,1.59228-1.31374,2.25487-2.70725,2.25487-.62282,0-1.29928-.2118-1.86998-.2118-.26361,0-.53018.1181-.66267.2118h-.07825v-2.38592Z"/>
            <path class="cls-2" d="M187.35657,6.27939h-1.3935v4.27196c0,.79417,0,1.3776.61131,1.3776.50267,0,.58373-.49003.59675-.95529v-.42231h.50412v.29119c0,1.32571-.53018,1.90907-1.73817,1.90907-1.36594,0-1.88309-.84879-1.88309-1.73742v-4.73479h-.92854v-.38459c1.31381-.07931,2.14964-1.35291,2.44083-2.54575h.39679v2.54575h1.3935v.38459Z"/>
            <path class="cls-2" d="M190.58089,9.2376v.32989c0,1.32677.12029,2.72028,1.63106,2.72028,1.15588,0,1.83082-.98135,1.85695-2.03012h.58373c-.17165,1.6325-1.20587,2.49394-2.86444,2.49394-2.10829,0-3.275-1.47237-3.275-3.54157,0-2.05466,1.16671-3.52703,3.275-3.52703,2.21472,0,2.99692,1.49842,2.99692,3.5546h-4.20424ZM192.716,8.85264c0-1.43176,0-2.70574-.98067-2.70574-1.10088,0-1.15444,1.40646-1.15444,2.70574h2.13511Z"/>
            <path class="cls-2" d="M198.50199,11.25317c0,.72895.134.90204.53162.90204h.61055v.38459h-4.03115v-.38459h.44973c.39913,0,.5301-.17309.5301-.90204v-4.07175c0-.73039-.13097-.90204-.5301-.90204h-.44973v-.38459h1.39199c.49102,0,.96764-.0934,1.41957-.2118v1.49842h.05136c.29262-.6757.88863-1.40608,1.77802-1.40608.62291,0,1.32541.26649,1.32541,1.11497,0,.62252-.40996.95385-1.11391.95385-.31717,0-.87416-.15976-.87416-.84848,0-.25202,0-.3183-.16006-.3183-.37156,0-.92923.86295-.92923,2.28214v2.29365Z"/>
            <path class="cls-2" d="M206.8338,11.57148h-.02538c-.30565.84886-1.06096,1.18012-1.99026,1.18012-1.85552,0-2.54637-1.90907-2.54637-3.514,0-1.69727.63729-3.5546,2.57393-3.5546.84879,0,1.471.3458,1.88301,1.08778h.02613v-2.8383c0-.64964-.02613-.88901-.53018-.88901h-.41284v-.38459h2.85353v8.58126c0,.79523.18544.91507.53018.91507h.42299v.38459h-2.78475v-.96832ZM205.36281,12.08901c1.33843,0,1.35291-2.13662,1.35291-3.01147,0-.90174-.1072-2.73157-1.36738-2.73157-1.00664,0-1.00664,2.04277-1.00664,2.67839,0,.65108,0,3.06464,1.02112,3.06464Z"/>
            <path class="cls-2" d="M217.48822,10.6955c0,.88901-.01304,2.0561-1.64547,2.0561-.52874,0-1.21898-.27808-1.44563-.88893-.38383.66267-1.20512.88893-1.9352.88893-1.13997,0-2.08291-.63691-2.08291-1.85733,0-1.70992,1.91057-2.29365,3.35612-2.29365.19847,0,.3839,0,.58305.0131v-1.39321c0-.58373-.1862-1.07361-.88863-1.07361-.29119,0-.90105.05356-.90105.39792,0,.14673.2912.38466.2912.75614,0,.55616-.47656.88757-.99363.88757-.59828,0-.99514-.38315-.99514-.98097,0-1.24648,1.73674-1.52456,2.679-1.52456,1.27247,0,2.71884.33133,2.71884,1.87036v3.95191c0,.35739.11946.50291.32944.50291.42739,0,.42739-.70175.42739-1.31268h.50262ZM214.31819,9.03732c-.17317-.03909-.27815-.05212-.39762-.05212-1.07339,0-1.54993.71622-1.54993,1.89649,0,.59638.23611,1.20731.91257,1.20731.34482,0,1.03498-.22634,1.03498-1.36594v-1.68575Z"/>
            <path class="cls-2" d="M217.97051,12.15521h.45049c.39769,0,.52874-.17309.52874-.90204v-4.07175c0-.73039-.13105-.90204-.52874-.90204h-.45049v-.38459h1.39207c.49102,0,.96764-.0934,1.41881-.2118v1.18012h.0253c.53162-.75645,1.16754-1.18012,2.14927-1.18012.9009,0,1.56577.33133,1.81635,1.18012.57071-.82129,1.11535-1.18012,2.21472-1.18012,1.29935,0,1.93672.78106,1.93672,1.88309v3.68709c0,.72895.13181.90204.5301.90204h.29119v.38459h-3.55316v-.38459h.29111c.39837,0,.53163-.17309.53163-.90204v-3.34129c0-.64964,0-1.40616-.84887-1.40616-1.2761,0-1.2761,1.45828-1.2761,2.2807v2.46674c0,.72895.1362.90204.53162.90204h.29255v.38459h-3.5549v-.38459h.29293c.3983,0,.52874-.17309.52874-.90204v-3.34129c0-.64964,0-1.40616-.8478-1.40616-1.27246,0-1.27246,1.45828-1.27246,2.2807v2.46674c0,.72895.13325.90204.5301.90204h.29119v.38459h-3.7111v-.38459Z"/>
            <path class="cls-2" d="M243.46522,3.48275h-.3433c-.64896,0-.66198.35739-.66198,2.05466v3.97933c0,1.94679-1.24716,3.23486-3.36924,3.23486-2.45364,0-3.74148-1.32571-3.74148-3.28909v-3.9251c0-1.69727-.01151-2.05466-.66191-2.05466h-.34474v-.38603h4.08622v.38603h-.34618c-.6504,0-.6635.35739-.6635,2.05466v4.20318c0,1.79067.98355,2.42766,2.08155,2.42766,1.2617,0,2.37554-.91507,2.37554-2.85133v-3.7795c0-1.69727-.01446-2.05466-.66342-2.05466h-.34474v-.38603h2.59719v.38603Z"/>
            <path class="cls-2" d="M243.96495,12.15521h.45041c.39838,0,.53025-.17309.53025-.90204v-4.07175c0-.73039-.13187-.90204-.53025-.90204h-.45041v-.38459h1.39199c.49102,0,.969-.0934,1.41813-.2118v1.18012h.0275c.5301-.75645,1.16603-1.18012,2.14814-1.18012,1.29928,0,1.93513.78106,1.93513,1.88309v3.68709c0,.72895.13325.90204.53162.90204h.29112v.38459h-3.55453v-.38459h.29111c.39981,0,.53154-.17309.53154-.90204v-3.34129c0-.64964,0-1.40616-.84879-1.40616-1.27322,0-1.27322,1.45828-1.27322,2.2807v2.46674c0,.72895.13468.90204.5301.90204h.2927v.38459h-3.71254v-.38459Z"/>
            <path class="cls-2" d="M252.23003,12.15521h.45056c.39831,0,.53011-.17309.53011-.90204v-4.07175c0-.73039-.13181-.90204-.53011-.90204h-.45056v-.38459h1.39352c.53009,0,1.15292-.06621,1.56432-.2118-.09272,1.04763-.06658,2.06913-.06658,3.0904v2.47977c0,.72895.13181.90204.53011.90204h.45048v.38459h-3.87184v-.38459ZM254.16675,2.65888c.60973,0,1.11384.50404,1.11384,1.11497,0,.60941-.50411,1.11391-1.11384,1.11391-.61131,0-1.11399-.5045-1.11399-1.11391,0-.61093.50268-1.11497,1.11399-1.11497Z"/>
            <path class="cls-2" d="M263.27925,6.27939c-.49109,0-.63593.41216-.84886.91514l-1.61796,3.91161c-.19847.49283-.3839.99552-.54321,1.51297h-.88795c-.1187-.34436-.24043-.7163-.37224-1.04763l-1.76423-4.41611c-.22459-.57033-.26513-.87598-.64896-.87598h-.22596v-.38459h3.63429v.38459h-.45056c-.22589,0-.45185.05363-.45185.29262,0,.06477.03909.22483.11878.44981l1.29928,3.38257h.02757l1.3123-3.3153c.06666-.18574.10719-.33133.10719-.45231,0-.22339-.22596-.35739-.46352-.35739h-.31868v-.38459h2.09458v.38459Z"/>
            <path class="cls-2" d="M265.62577,9.2376v.32989c0,1.32677.11726,2.72028,1.63106,2.72028,1.15149,0,1.82945-.98135,1.85696-2.03012h.58221c-.17377,1.6325-1.208,2.49394-2.86512,2.49394-2.10897,0-3.27508-1.47237-3.27508-3.54157,0-2.05466,1.16611-3.52703,3.27508-3.52703,2.2148,0,2.99844,1.49842,2.99844,3.5546h-4.20355ZM267.76089,8.85264c0-1.43176,0-2.70574-.98356-2.70574-1.09937,0-1.15156,1.40646-1.15156,2.70574h2.13512Z"/>
            <path class="cls-2" d="M273.44188,11.25317c0,.72895.13325.90204.53018.90204h.61123v.38459h-4.03259v-.38459h.45185c.39693,0,.52874-.17309.52874-.90204v-4.07175c0-.73039-.13181-.90204-.52874-.90204h-.45185v-.38459h1.39343c.48958,0,.96764-.0934,1.41949-.2118v1.49842h.05075c.29255-.6757.88931-1.40608,1.77726-1.40608.62434,0,1.32678.26649,1.32678,1.11497,0,.62252-.41126.95385-1.11385.95385-.31868,0-.87628-.15976-.87628-.84848,0-.25202,0-.3183-.15794-.3183-.37224,0-.92848.86295-.92848,2.28214v2.29365Z"/>
            <path class="cls-2" d="M277.21085,10.36568h.42587c.26505,1.12649.88787,1.9221,2.13359,1.9221.67645,0,1.32685-.39762,1.32685-1.07369,0-.84841-.66342-1.03422-1.9352-1.32685-.98203-.22596-1.95111-.55624-1.95111-1.92323,0-1.57781,1.15444-2.281,2.61309-2.281.59684,0,1.02263.2118,1.45865.2118.35777,0,.55624-.10643.71706-.2118h.07963v2.13541h-.42588c-.13181-.87484-.84886-1.67151-1.7759-1.67151-.65032,0-1.31374.2393-1.31374,1.04763,0,.6757.34474.76948,1.88301,1.128,1.18201.26505,2.08299.63699,2.08299,2.1742,0,1.59228-1.31382,2.25487-2.70581,2.25487-.6229,0-1.29935-.2118-1.86998-.2118-.26657,0-.53018.1181-.66198.2118h-.08113v-2.38592Z"/>
            <path class="cls-2" d="M283.22363,12.15521h.44897c.39981,0,.53154-.17309.53154-.90204v-4.07175c0-.73039-.13173-.90204-.53154-.90204h-.44897v-.38459h1.39192c.53163,0,1.153-.06621,1.56584-.2118-.09415,1.04763-.0681,2.06913-.0681,3.0904v2.47977c0,.72895.13325.90204.53162.90204h.44906v.38459h-3.87034v-.38459ZM285.1602,2.65888c.60835,0,1.11247.50404,1.11247,1.11497,0,.60941-.50412,1.11391-1.11247,1.11391-.61123,0-1.11535-.5045-1.11535-1.11391,0-.61093.50412-1.11497,1.11535-1.11497Z"/>
            <path class="cls-2" d="M291.79285,6.27939h-1.39343v4.27196c0,.79417,0,1.3776.60979,1.3776.50412,0,.58373-.49003.5982-.95529v-.42231h.50268v.29119c0,1.32571-.53017,1.90907-1.73674,1.90907-1.36592,0-1.88309-.84879-1.88309-1.73742v-4.73479h-.9284v-.38459c1.31375-.07931,2.1495-1.35291,2.44069-2.54575h.39686v2.54575h1.39343v.38459Z"/>
            <path class="cls-2" d="M299.43375,6.27939c-.49254,0-.65041.41216-.8488.91514l-2.61461,6.59175c-.47655,1.19285-.84735,1.84279-2.04095,1.84279-.65032,0-1.29928-.51745-1.29928-1.19322,0-.58336.34323-.95378.90098-.95378.57063,0,.84879.38353.84879.78106,0,.3183-.21142.47693-.21142.66274,0,.13393.10575.23892.23748.23892.37224,0,.75614-.6757,1.03424-1.45926l.31867-.88757-2.16117-5.54268c-.13181-.33171-.31861-.99589-.71554-.99589h-.29119v-.38459h3.63293v.38459h-.23906c-.27809,0-.59678.0131-.59678.33179,0,.05318.02613.15961.07961.3183l1.28632,3.39446h.02613l1.18194-3.12941c.07817-.2249.11879-.39769.11879-.49003,0-.35853-.19992-.42511-.43891-.42511h-.33171v-.38459h2.12353v.38459Z"/>
          </g>
        </g>
        <g>
          <path class="cls-2" d="M157.61027,19.85716c2.10829,0,3.275,1.47168,3.275,3.52642,0,2.06913-1.16671,3.54233-3.275,3.54233-2.10905,0-3.27652-1.4732-3.27652-3.54233,0-2.05474,1.16747-3.52642,3.27652-3.52642ZM157.61027,26.46088c.94219,0,1.28625-.78296,1.28625-3.07729,0-2.62544-.58373-3.0629-1.28625-3.0629-.70259,0-1.28632.43746-1.28632,3.0629,0,2.29434.34542,3.07729,1.28632,3.07729Z"/>
          <path class="cls-2" d="M162.65246,20.45249h-.97923v-.38383h.97923v-.60979c0-1.72522.82273-2.838,2.62681-2.838.87416,0,2.05618.34436,2.05618,1.40548,0,.58298-.34618.95453-.91545.95453-.51715,0-.91545-.27816-.91545-.82136,0-.5576.3983-.61123.3983-.8756,0-.19915-.27952-.27884-.45049-.27884-.96824-.05212-.89075,1.16747-.89075,1.85695v1.20663h1.26231v.38383h-1.26231v4.97417c0,.72857.13468.90174.53154.90174h.73077v.38451h-4.15068v-.38451h.44913c.39974,0,.5301-.17317.5301-.90174v-4.97417Z"/>
          <path class="cls-2" d="M175.70922,26.32839c.59464-.01386.99226-.01386.99226-.39837,0-.2521-.21157-.76917-.44913-1.37896l-.34467-.88863h-3.39598l-.35716.84879c-.18604.45125-.34618.92848-.34618,1.26019,0,.35709.26513.54313.71637.55699h.35853v.38451h-2.86375v-.38451c.67645,0,.92704-.34406,1.36594-1.39131l2.5856-6.22057c.21142-.50556.41133-1.00885.57071-1.57887h1.1805c.17241.66335.3708,1.27397.60912,1.88377l2.45302,6.35162c.1593.42511.3708.95537.88939.95537h.27808v.38451h-4.24264v-.38451ZM174.27519,19.40523l-1.57736,3.79215h3.03677l-1.45941-3.79215Z"/>
          <path class="cls-2" d="M180.06193,29.20653h.45193c.42443,0,.50269-.42519.50269-1.08778v-5.78318c0-1.40502.0543-1.88309-.5954-1.88309h-.33165v-.38383h1.15444c.57071,0,1.13997-.09264,1.60493-.2115v1.23269h.02606c.37004-.8756,1.12695-1.23269,1.9627-1.23269,1.93452,0,2.57113,1.85559,2.57113,3.55316,0,1.605-.68804,3.51559-2.54575,3.51559-.82205,0-1.60493-.37231-1.90907-1.0618h-.02689v1.89611c0,1.12687,0,1.44631.54321,1.44631h.42587v.38383h-3.83419v-.38383ZM184.31912,26.26241c1.02112,0,1.02112-2.41455,1.02112-3.06502,0-.63509,0-2.67748-1.00741-2.67748-1.26095,0-1.36594,1.8287-1.36594,2.73187,0,.8756.01303,3.01063,1.35222,3.01063Z"/>
          <path class="cls-2" d="M188.16922,29.20653h.45194c.42435,0,.50335-.42519.50335-1.08778v-5.78318c0-1.40502.05287-1.88309-.59608-1.88309h-.33171v-.38383h1.15444c.57002,0,1.14073-.09264,1.60493-.2115v1.23269h.02613c.3708-.8756,1.12618-1.23269,1.96194-1.23269,1.93452,0,2.57325,1.85559,2.57325,3.55316,0,1.605-.68948,3.51559-2.54795,3.51559-.82197,0-1.60349-.37231-1.90907-1.0618h-.02538v1.89611c0,1.12687,0,1.44631.54321,1.44631h.42511v.38383h-3.83412v-.38383ZM192.42633,26.26241c1.02188,0,1.02188-2.41455,1.02188-3.06502,0-.63509,0-2.67748-1.00885-2.67748-1.25875,0-1.36594,1.8287-1.36594,2.73187,0,.8756.01303,3.01063,1.35291,3.01063Z"/>
          <path class="cls-2" d="M196.21121,26.32839h.44981c.39905,0,.53162-.17317.53162-.90174v-7.30767c0-.72865-.13256-.90098-.53162-.90098h-.44981v-.38451h2.89049v8.59315c0,.72857.13256.90174.53086.90174h.45049v.38451h-3.87184v-.38451Z"/>
          <path class="cls-2" d="M200.40393,26.32839h.45125c.39686,0,.5301-.17317.5301-.90174v-4.07099c0-.73008-.13325-.90318-.5301-.90318h-.45125v-.38383h1.39124c.53025,0,1.15452-.06666,1.56516-.2115-.09196,1.04725-.0659,2.06852-.0659,3.08888v2.48061c0,.72857.13325.90174.53018.90174h.45185v.38451h-3.87252v-.38451ZM202.33845,16.8335c.61123,0,1.11535.50329,1.11535,1.11308,0,.60987-.50412,1.11323-1.11535,1.11323-.60767,0-1.11247-.50336-1.11247-1.11323,0-.60979.5048-1.11308,1.11247-1.11308Z"/>
          <path class="cls-2" d="M207.03734,23.41032v.33171c0,1.32677.1181,2.71884,1.62955,2.71884,1.15368,0,1.83089-.98067,1.85703-2.03004h.58373c-.17248,1.63174-1.20662,2.49507-2.86519,2.49507-2.10753,0-3.27431-1.4732-3.27431-3.54233,0-2.05474,1.16678-3.52642,3.27431-3.52642,2.21472,0,2.99844,1.4985,2.99844,3.55316h-4.20355ZM209.17245,23.02649c0-1.43328,0-2.70581-.98286-2.70581-1.10013,0-1.15224,1.40502-1.15224,2.70581h2.13511Z"/>
          <path class="cls-2" d="M216.90879,25.7439h-.0275c-.30565.84879-1.06172,1.18201-1.98952,1.18201-1.85618,0-2.54568-1.91058-2.54568-3.51559,0-1.69757.63509-3.55316,2.57249-3.55316.84886,0,1.47168.34474,1.88233,1.08634h.02682v-2.8383c0-.64964-.02682-.88719-.53162-.88719h-.40996v-.38451h2.85072v8.58012c0,.79455.18681.91476.53162.91476h.42436v.38451h-2.78406v-.969ZM215.43498,26.26241c1.33912,0,1.35291-2.13503,1.35291-3.01063,0-.90318-.10642-2.73187-1.36594-2.73187-1.00885,0-1.00885,2.04239-1.00885,2.67748,0,.65047,0,3.06502,1.02188,3.06502Z"/>
          <path class="cls-2" d="M224.65937,24.19404h.50268c0,1.3123,1.18194,2.26684,2.54644,2.26684,1.11534,0,1.84391-.64964,1.84391-1.69765,0-2.46606-4.97417-1.35291-4.97417-4.85395,0-1.86998,1.41957-2.85057,3.14327-2.85057.75614,0,1.55281.34474,1.98883.34474.24043,0,.35778-.13256.38527-.26581h.42443v2.38637h-.50412c-.07825-1.19285-1.00817-2.00179-2.22631-2.00179-.90242,0-1.85991.45185-1.85991,1.48615,0,2.29297,5.0553,1.10013,5.0553,4.93281,0,1.88309-1.53978,2.98473-3.27651,2.98473-.91546,0-1.75129-.34618-2.26836-.34618-.23755,0-.31724.10567-.35777.26642h-.42299v-2.65211Z"/>
          <path class="cls-2" d="M238.12314,24.48507c-.18536,1.64341-1.10088,2.44084-2.74634,2.44084-2.14814,0-3.12873-1.61947-3.12873-3.60831,0-2.4928,1.79037-3.46044,3.38075-3.46044,1.83233,0,2.37562.99362,2.37562,1.45714,0,.63737-.3317,1.07558-1.02263,1.07558-.54328,0-.88659-.38534-.88659-.91545,0-.38459.18544-.45117.18544-.61055,0-.29119-.45185-.54321-.75607-.54321-1.13997,0-1.20807,1.605-1.20807,3.15562,0,1.04793-.01303,2.98458,1.46018,2.98458,1.20511,0,1.67006-.88795,1.76134-1.9758h.5851Z"/>
          <path class="cls-2" d="M238.76338,26.32839h.452c.39686,0,.52866-.17317.52866-.90174v-4.07099c0-.73008-.13181-.90318-.52866-.90318h-.452v-.38383h1.39351c.52866,0,1.153-.06666,1.5644-.2115-.09423,1.04725-.06674,2.06852-.06674,3.08888v2.48061c0,.72857.13188.90174.53025.90174h.45041v.38451h-3.87184v-.38451ZM240.69866,16.8335c.61123,0,1.11385.50329,1.11385,1.11308,0,.60987-.50262,1.11323-1.11385,1.11323-.60843,0-1.11246-.50336-1.11246-1.11323,0-.60979.50403-1.11308,1.11246-1.11308Z"/>
          <path class="cls-2" d="M245.39611,23.41032v.33171c0,1.32677.11878,2.71884,1.63099,2.71884,1.15595,0,1.83089-.98067,1.85695-2.03004h.58373c-.17233,1.63174-1.20662,2.49507-2.86512,2.49507-2.10753,0-3.275-1.4732-3.275-3.54233,0-2.05474,1.16747-3.52642,3.275-3.52642,2.21472,0,2.99692,1.4985,2.99692,3.55316h-4.20348ZM247.53122,23.02649c0-1.43328,0-2.70581-.98067-2.70581-1.09937,0-1.15444,1.40502-1.15444,2.70581h2.13511Z"/>
          <path class="cls-2" d="M250.42678,26.32839h.45041c.39837,0,.5301-.17317.5301-.90174v-4.07099c0-.73008-.13173-.90318-.5301-.90318h-.45041v-.38383h1.39192c.49102,0,.96764-.09264,1.41957-.2115v1.17906h.02606c.53154-.75607,1.16754-1.17906,2.14814-1.17906,1.30071,0,1.93657.78144,1.93657,1.88309v3.68641c0,.72857.13188.90174.53025.90174h.29111v.38451h-3.55316v-.38451h.29111c.3983,0,.53162-.17317.53162-.90174v-3.34166c0-.6504,0-1.40654-.84879-1.40654-1.27473,0-1.27473,1.45941-1.27473,2.28214v2.46606c0,.72857.13476.90174.53162.90174h.29262v.38451h-3.7139v-.38451Z"/>
          <path class="cls-2" d="M264.73207,24.48507c-.18679,1.64341-1.09937,2.44084-2.74634,2.44084-2.14662,0-3.13017-1.61947-3.13017-3.60831,0-2.4928,1.79173-3.46044,3.38363-3.46044,1.82945,0,2.37266.99362,2.37266,1.45714,0,.63737-.33027,1.07558-1.02112,1.07558-.54328,0-.88802-.38534-.88802-.91545,0-.38459.18544-.45117.18544-.61055,0-.29119-.45049-.54321-.75607-.54321-1.13997,0-1.20663,1.605-1.20663,3.15562,0,1.04793-.0131,2.98458,1.45858,2.98458,1.20671,0,1.67023-.88795,1.76432-1.9758h.58372Z"/>
          <path class="cls-2" d="M267.70725,23.41032v.33171c0,1.32677.1203,2.71884,1.63106,2.71884,1.15444,0,1.82945-.98067,1.85703-2.03004h.58373c-.17241,1.63174-1.20663,2.49507-2.86519,2.49507-2.10753,0-3.275-1.4732-3.275-3.54233,0-2.05474,1.16747-3.52642,3.275-3.52642,2.21624,0,2.99844,1.4985,2.99844,3.55316h-4.20507ZM269.84236,23.02649c0-1.43328,0-2.70581-.98059-2.70581-1.10087,0-1.15452,1.40502-1.15452,2.70581h2.13511Z"/>
          <path class="cls-2" d="M273.01601,24.5387h.42595c.26505,1.12694.88787,1.92217,2.13503,1.92217.67501,0,1.32541-.3983,1.32541-1.07399,0-.84818-.66349-1.03498-1.93664-1.32617-.98067-.22596-1.94975-.55692-1.94975-1.92285,0-1.57887,1.15452-2.2807,2.61317-2.2807.59676,0,1.02112.2115,1.45858.2115.35929,0,.55768-.10575.71706-.2115h.07817v2.13435h-.42298c-.1347-.87553-.8488-1.67083-1.77871-1.67083-.64896,0-1.3123.23831-1.3123,1.04725,0,.67645.34618.76993,1.88301,1.12838,1.18201.26369,2.08293.63593,2.08293,2.1742,0,1.5919-1.31383,2.2554-2.70575,2.2554-.6229,0-1.29935-.21301-1.87006-.21301-.26505,0-.5301.12029-.66198.21301h-.08113v-2.38721Z"/>
        </g>
      </g>
      <g>
        <path class="cls-2" d="M10.56664,8.41493v3.88059h-1.08503V2.96422h2.5594c1.1446,0,1.99029.21913,2.53707.6574s.82016,1.0978.82016,1.97859c0,1.23396-.62549,2.06795-1.87647,2.50196l2.53387,4.19334h-1.28289l-2.25942-3.88059h-1.94668ZM10.56664,7.48307h1.48714c.76591,0,1.32757-.15212,1.68499-.45635s.53613-.76059.53613-1.36906c0-.61698-.1819-1.06163-.54571-1.33395s-.94781-.40848-1.75201-.40848h-1.41054v3.56785Z"/>
        <path class="cls-2" d="M20.35748,12.42317c-1.03397,0-1.84988-.31487-2.44771-.94462s-.89675-1.50416-.89675-2.62323c0-1.12758.27764-2.02327.83292-2.68706s1.30098-.99568,2.23709-.99568c.87654,0,1.57011.28828,2.08071.86484s.76591,1.33715.76591,2.28176v.67017h-4.81883c.02128.82122.22871,1.44458.6223,1.87009s.94781.63826,1.66266.63826c.75314,0,1.49777-.15744,2.23389-.47231v.94462c-.37444.16169-.72867.27764-1.0627.34785s-.73719.10531-1.20949.10531ZM20.07026,6.05976c-.56166,0-1.00951.18297-1.34353.5489s-.53082.87228-.59039,1.51905h3.6572c0-.66804-.14893-1.17971-.44678-1.535s-.72336-.53294-1.27651-.53294Z"/>
        <path class="cls-2" d="M29.24837,10.38714c0,.65102-.24254,1.15311-.72761,1.50628s-1.16588.52975-2.04242.52975c-.9276,0-1.65095-.1468-2.17007-.4404v-.98291c.33615.1702.69676.30424,1.08184.4021s.75633.1468,1.11376.1468c.55315,0,.97866-.08829,1.27651-.26488s.44678-.44572.44678-.80739c0-.27232-.11808-.50529-.35423-.69889s-.69676-.42231-1.38182-.68612c-.65102-.24254-1.11376-.45423-1.38821-.63506s-.47869-.38614-.61273-.61592-.20105-.50422-.20105-.82335c0-.57017.2319-1.02014.6957-1.34991s1.09993-.49465,1.90838-.49465c.75314,0,1.48926.15318,2.20836.45954l-.37657.86164c-.70208-.28934-1.33821-.43401-1.90838-.43401-.50209,0-.88079.07872-1.13609.23615s-.38295.37444-.38295.65102c0,.18722.04787.34679.14361.47869s.24998.25743.46274.37657.62124.29147,1.22545.51699c.82973.30211,1.39033.60634,1.6818.91271s.4372.69144.4372,1.15524Z"/>
        <path class="cls-2" d="M34.22677,12.42317c-.45529,0-.87122-.08404-1.24779-.25211s-.69251-.42657-.94781-.77548h-.07659c.05106.40848.07659.79569.07659,1.16162v2.87853h-1.0595V5.30024h.86164l.1468.95738h.05106c.27232-.38295.58932-.65953.951-.82973s.77654-.2553,1.2446-.2553c.9276,0,1.64351.317,2.14773.951s.75633,1.5233.75633,2.66791c0,1.14886-.25637,2.04135-.7691,2.67748s-1.22439.95419-2.13496.95419ZM34.07358,6.07253c-.71485,0-1.23183.19786-1.55096.59358s-.48295,1.02546-.49146,1.88924v.23615c0,.98291.16382,1.68606.49146,2.10943s.85313.63506,1.57649.63506c.60422,0,1.07759-.24466,1.42012-.73399s.5138-1.16375.5138-2.02327c0-.87228-.17127-1.54139-.5138-2.00731s-.82441-.69889-1.44565-.69889Z"/>
        <path class="cls-2" d="M45.01967,8.7915c0,1.14035-.28721,2.03072-.86164,2.6711s-1.36799.96057-2.38069.96057c-.62549,0-1.18077-.1468-1.66585-.4404s-.85952-.71485-1.12333-1.26375-.39572-1.19141-.39572-1.92753c0-1.14035.28509-2.02859.85526-2.66472s1.36161-.95419,2.37431-.95419c.97866,0,1.75627.32551,2.33282.97653s.86484,1.53181.86484,2.64238ZM39.69023,8.7915c0,.89356.17871,1.57436.53613,2.04242s.88292.70208,1.57649.70208,1.22013-.23296,1.57968-.69889.53933-1.1478.53933-2.04561c0-.8893-.17978-1.56479-.53933-2.02646s-.89037-.69251-1.59245-.69251c-.69357,0-1.21694.22764-1.57011.68293s-.52975,1.13397-.52975,2.03603Z"/>
        <path class="cls-2" d="M51.6639,12.29552v-4.52523c0-.57017-.12978-.99568-.38934-1.27651s-.66591-.42125-1.21907-.42125c-.73187,0-1.268.19786-1.6084.59358s-.5106,1.04887-.5106,1.95944v3.66997h-1.0595v-6.99528h.86164l.17233.95738h.05106c.21701-.34466.52124-.61166.91271-.80101s.8276-.28402,1.30842-.28402c.8425,0,1.4765.20318,1.902.60953s.63826,1.05631.63826,1.94987v4.56353h-1.0595Z"/>
        <path class="cls-2" d="M59.41233,10.38714c0,.65102-.24254,1.15311-.72761,1.50628s-1.16588.52975-2.04242.52975c-.9276,0-1.65095-.1468-2.17007-.4404v-.98291c.33615.1702.69676.30424,1.08184.4021s.75633.1468,1.11376.1468c.55315,0,.97866-.08829,1.27651-.26488s.44678-.44572.44678-.80739c0-.27232-.11808-.50529-.35423-.69889s-.69676-.42231-1.38182-.68612c-.65102-.24254-1.11376-.45423-1.38821-.63506s-.47869-.38614-.61273-.61592-.20105-.50422-.20105-.82335c0-.57017.2319-1.02014.6957-1.34991s1.09993-.49465,1.90838-.49465c.75314,0,1.48926.15318,2.20836.45954l-.37657.86164c-.70208-.28934-1.33821-.43401-1.90838-.43401-.50209,0-.88079.07872-1.13609.23615s-.38295.37444-.38295.65102c0,.18722.04787.34679.14361.47869s.24998.25743.46274.37657.62124.29147,1.22545.51699c.82973.30211,1.39033.60634,1.6818.91271s.4372.69144.4372,1.15524Z"/>
        <path class="cls-2" d="M61.04626,3.40462c0-.24254.05957-.42018.17871-.53294s.26807-.16914.44678-.16914c.1702,0,.317.05744.4404.17233s.18509.29147.18509.52975-.0617.41593-.18509.53294-.27019.17552-.4404.17552c-.17871,0-.32764-.05851-.44678-.17552s-.17871-.29466-.17871-.53294ZM62.19512,12.29552h-1.0595v-6.99528h1.0595v6.99528Z"/>
        <path class="cls-2" d="M67.69688,5.18535c.91909,0,1.63287.31381,2.14135.94143s.76272,1.51586.76272,2.66472-.25637,2.04135-.7691,2.67748-1.22439.95419-2.13496.95419c-.45529,0-.87122-.08404-1.24779-.25211s-.69251-.42657-.94781-.77548h-.07659l-.22339.89994h-.75952V2.36426h1.0595v2.41261c0,.54039-.01702,1.02546-.05106,1.45522h.05106c.49358-.69783,1.22545-1.04674,2.1956-1.04674ZM67.5437,6.07253c-.72336,0-1.2446.20743-1.56373.6223s-.47869,1.11376-.47869,2.09667.16382,1.68606.49146,2.10943.85313.63506,1.57649.63506c.65102,0,1.13609-.23722,1.45522-.71165s.47869-1.15631.47869-2.04561c0-.91058-.15956-1.58926-.47869-2.03603s-.81271-.67017-1.48075-.67017Z"/>
        <path class="cls-2" d="M73.51139,12.29552h-1.0595V2.36426h1.0595v9.93125Z"/>
        <path class="cls-2" d="M78.71317,12.42317c-1.03397,0-1.84988-.31487-2.44771-.94462s-.89675-1.50416-.89675-2.62323c0-1.12758.27764-2.02327.83292-2.68706s1.30098-.99568,2.23709-.99568c.87654,0,1.57011.28828,2.08071.86484s.76591,1.33715.76591,2.28176v.67017h-4.81883c.02128.82122.22871,1.44458.6223,1.87009s.94781.63826,1.66266.63826c.75314,0,1.49777-.15744,2.23389-.47231v.94462c-.37444.16169-.72867.27764-1.0627.34785s-.73719.10531-1.20949.10531ZM78.42595,6.05976c-.56166,0-1.00951.18297-1.34353.5489s-.53082.87228-.59039,1.51905h3.6572c0-.66804-.14893-1.17971-.44678-1.535s-.72336-.53294-1.27651-.53294Z"/>
        <path class="cls-2" d="M86.64668,12.29552V2.96422h1.08503v9.33129h-1.08503Z"/>
        <path class="cls-2" d="M93.16327,12.29552h-1.08503V3.92799h-2.95512v-.96377h6.99528v.96377h-2.95512v8.36753Z"/>
      </g>
      <g>
        <path class="cls-2" d="M1.08503,22.67919v3.88059H0v-9.33129h2.5594c1.1446,0,1.99029.21913,2.53707.6574s.82016,1.0978.82016,1.97859c0,1.23396-.62549,2.06795-1.87647,2.50196l2.53387,4.19334h-1.28289l-2.25942-3.88059h-1.94668ZM1.08503,21.74734h1.48714c.76591,0,1.32757-.15212,1.68499-.45635s.53613-.76059.53613-1.36906c0-.61698-.1819-1.06163-.54571-1.33395s-.94781-.40848-1.75201-.40848h-1.41054v3.56785Z"/>
        <path class="cls-2" d="M10.87587,26.68744c-1.03397,0-1.84988-.31487-2.44771-.94462s-.89675-1.50416-.89675-2.62323c0-1.12758.27764-2.02327.83292-2.68706s1.30098-.99568,2.23709-.99568c.87654,0,1.57011.28828,2.08071.86484s.76591,1.33715.76591,2.28176v.67017h-4.81883c.02128.82122.22871,1.44458.6223,1.87009s.94781.63826,1.66266.63826c.75314,0,1.49777-.15744,2.23389-.47231v.94462c-.37444.16169-.72867.27764-1.0627.34785s-.73719.10531-1.20949.10531ZM10.58866,20.32403c-.56166,0-1.00951.18297-1.34353.5489s-.53082.87228-.59039,1.51905h3.6572c0-.66804-.14893-1.17971-.44678-1.535s-.72336-.53294-1.27651-.53294Z"/>
        <path class="cls-2" d="M19.76677,24.6514c0,.65102-.24254,1.15311-.72761,1.50628s-1.16588.52975-2.04242.52975c-.9276,0-1.65095-.1468-2.17007-.4404v-.98291c.33615.1702.69676.30424,1.08184.4021s.75633.1468,1.11376.1468c.55315,0,.97866-.08829,1.27651-.26488s.44678-.44572.44678-.80739c0-.27232-.11808-.50529-.35423-.69889s-.69676-.42231-1.38182-.68612c-.65102-.24254-1.11376-.45423-1.38821-.63506s-.47869-.38614-.61273-.61592-.20105-.50422-.20105-.82335c0-.57017.2319-1.02014.6957-1.34991s1.09993-.49465,1.90838-.49465c.75314,0,1.48926.15318,2.20836.45954l-.37657.86164c-.70208-.28934-1.33821-.43401-1.90838-.43401-.50209,0-.88079.07872-1.13609.23615s-.38295.37444-.38295.65102c0,.18722.04787.34679.14361.47869s.24998.25743.46274.37657.62124.29147,1.22545.51699c.82973.30211,1.39033.60634,1.6818.91271s.4372.69144.4372,1.15524Z"/>
        <path class="cls-2" d="M24.44518,26.68744c-1.03397,0-1.84988-.31487-2.44771-.94462s-.89675-1.50416-.89675-2.62323c0-1.12758.27764-2.02327.83292-2.68706s1.30098-.99568,2.23709-.99568c.87654,0,1.57011.28828,2.08071.86484s.76591,1.33715.76591,2.28176v.67017h-4.81883c.02128.82122.22871,1.44458.6223,1.87009s.94781.63826,1.66266.63826c.75314,0,1.49777-.15744,2.23389-.47231v.94462c-.37444.16169-.72867.27764-1.0627.34785s-.73719.10531-1.20949.10531ZM24.15797,20.32403c-.56166,0-1.00951.18297-1.34353.5489s-.53082.87228-.59039,1.51905h3.6572c0-.66804-.14893-1.17971-.44678-1.535s-.72336-.53294-1.27651-.53294Z"/>
        <path class="cls-2" d="M33.12546,26.55979l-.21062-.99568h-.05106c-.34891.43827-.69676.73506-1.04355.89037s-.77974.23296-1.29885.23296c-.69357,0-1.23715-.17871-1.63074-.53613s-.59039-.8659-.59039-1.52543c0-1.41267,1.12971-2.15305,3.38914-2.22113l1.18716-.0383v-.43401c0-.5489-.11808-.95419-.35423-1.21588s-.61379-.39253-1.1329-.39253c-.58294,0-1.24247.17871-1.97859.53613l-.32551-.81058c.34466-.18722.72229-.33402,1.1329-.4404s.82229-.15956,1.23502-.15956c.83399,0,1.45203.18509,1.85413.55528s.60315.96377.60315,1.78073v4.77415h-.78505ZM30.732,25.81303c.65953,0,1.17758-.18084,1.55415-.54252s.56486-.86803.56486-1.51905v-.63187l-1.0595.04468c-.8425.02979-1.4499.16063-1.82222.39253s-.55847.59251-.55847,1.08184c0,.38295.11595.67442.34785.87441s.55635.29998.97334.29998Z"/>
        <path class="cls-2" d="M39.28462,19.43686c.31062,0,.58932.02553.83611.07659l-.1468.98291c-.28934-.06383-.54464-.09574-.76591-.09574-.56592,0-1.04993.22977-1.45203.68932s-.60315,1.03185-.60315,1.71691v3.75294h-1.0595v-6.99528h.87441l.12127,1.29566h.05106c.25956-.45529.5723-.80633.93824-1.05312s.76803-.37019,1.2063-.37019Z"/>
        <path class="cls-2" d="M44.22472,26.68744c-1.0127,0-1.79669-.31168-2.35197-.93504s-.83292-1.50522-.83292-2.64557c0-1.17013.2819-2.07433.84569-2.71259s1.36693-.95738,2.40941-.95738c.33615,0,.6723.03617,1.00844.1085s.59996.15744.79144.2553l-.32551.89994c-.23403-.09361-.48933-.17127-.76591-.23296s-.52124-.09255-.73399-.09255c-1.42118,0-2.13177.90632-2.13177,2.71897,0,.85952.17339,1.51905.52018,1.97859s.86058.68932,1.54139.68932c.58294,0,1.18077-.12552,1.7935-.37657v.93824c-.46805.24254-1.05738.36381-1.76797.36381Z"/>
        <path class="cls-2" d="M52.43907,26.55979v-4.52523c0-.57017-.12978-.99568-.38934-1.27651s-.66591-.42125-1.21907-.42125c-.73612,0-1.27332.19999-1.61159.59996s-.50741,1.05525-.50741,1.96583v3.6572h-1.0595v-9.93125h1.0595v3.00618c0,.36168-.01702.66166-.05106.89994h.06383c.2085-.33615.50529-.60102.89037-.79463s.82441-.29041,1.318-.29041c.85526,0,1.49671.20318,1.92434.60953s.64145,1.05206.64145,1.93711v4.56353h-1.0595Z"/>
        <path class="cls-2" d="M63.33409,21.67075h3.17213v4.538c-.49358.15744-.99568.27658-1.50628.35742s-1.10205.12127-1.77435.12127c-1.41267,0-2.5126-.42018-3.29978-1.26055s-1.18077-2.01795-1.18077-3.53274c0-.97015.19467-1.82009.584-2.54983s.94994-1.28715,1.6818-1.67223,1.58926-.57762,2.57217-.57762c.99568,0,1.92328.18297,2.78279.5489l-.42125.95738c-.8425-.35742-1.65308-.53613-2.43175-.53613-1.13609,0-2.02327.33828-2.66153,1.01483s-.95738,1.61479-.95738,2.81471c0,1.25949.30743,2.21475.92228,2.86577s1.51798.97653,2.70939.97653c.64677,0,1.27864-.07446,1.89562-.22339v-2.87215h-2.0871v-.97015Z"/>
        <path class="cls-2" d="M71.77821,19.43686c.31062,0,.58932.02553.83611.07659l-.1468.98291c-.28934-.06383-.54464-.09574-.76591-.09574-.56592,0-1.04993.22977-1.45203.68932s-.60315,1.03185-.60315,1.71691v3.75294h-1.0595v-6.99528h.87441l.12127,1.29566h.05106c.25956-.45529.5723-.80633.93824-1.05312s.76803-.37019,1.2063-.37019Z"/>
        <path class="cls-2" d="M79.96064,23.05576c0,1.14035-.28721,2.03072-.86164,2.6711s-1.36799.96057-2.38069.96057c-.62549,0-1.18077-.1468-1.66585-.4404s-.85952-.71485-1.12333-1.26375-.39572-1.19141-.39572-1.92753c0-1.14035.28509-2.02859.85526-2.66472s1.36161-.95419,2.37431-.95419c.97866,0,1.75627.32551,2.33282.97653s.86484,1.53181.86484,2.64238ZM74.63121,23.05576c0,.89356.17871,1.57436.53613,2.04242s.88292.70208,1.57649.70208,1.22013-.23296,1.57968-.69889.53933-1.1478.53933-2.04561c0-.8893-.17978-1.56479-.53933-2.02646s-.89037-.69251-1.59245-.69251c-.69357,0-1.21694.22764-1.57011.68293s-.52975,1.13397-.52975,2.03603Z"/>
        <path class="cls-2" d="M82.81364,19.56451v4.538c0,.57017.12978.99568.38934,1.27651s.66591.42125,1.21907.42125c.73187,0,1.26694-.19999,1.60521-.59996s.50741-1.05312.50741-1.95944v-3.67635h1.0595v6.99528h-.87441l-.15318-.93824h-.05744c-.21701.34466-.51805.60847-.90313.79144s-.82441.27445-1.318.27445c-.85101,0-1.4882-.20211-1.91158-.60634s-.63506-1.05099-.63506-1.9403v-4.57629h1.07227Z"/>
        <path class="cls-2" d="M93.09594,26.68744c-.45529,0-.87122-.08404-1.24779-.25211s-.69251-.42657-.94781-.77548h-.07659c.05106.40848.07659.79569.07659,1.16162v2.87853h-1.0595v-10.1355h.86164l.1468.95738h.05106c.27232-.38295.58932-.65953.951-.82973s.77654-.2553,1.2446-.2553c.9276,0,1.64351.317,2.14773.951s.75633,1.5233.75633,2.66791c0,1.14886-.25637,2.04135-.7691,2.67748s-1.22439.95419-2.13496.95419ZM92.94276,20.3368c-.71485,0-1.23183.19786-1.55096.59358s-.48295,1.02546-.49146,1.88924v.23615c0,.98291.16382,1.68606.49146,2.10943s.85313.63506,1.57649.63506c.60422,0,1.07759-.24466,1.42012-.73399s.5138-1.16375.5138-2.02327c0-.87228-.17127-1.54139-.5138-2.00731s-.82441-.69889-1.44565-.69889Z"/>
      </g>
      <rect id="line" class="cls-1" x="107.2" width=".8" height="29.3"/>
      <g id="flieber">
        <path class="cls-1" d="M134.09999,7c4.10001,0,7.89999,1.1,11.2,3l3.5-6c-4.3-2.5-9.39999-4-14.7-4s-10.4,1.4-14.7,4l3.5,6c3.3-1.9,7.10001-3,11.2-3Z"/>
        <path class="cls-1" d="M137.3,10.3c-1.39999,0-5.8,0-11.3,2.5-.7.3-1.2.6-1.3.4-.2-.4,1.5-1.9,3.39999-3,.7-.4,1.10001-.8.89999-1.1-.2-.4-1.60001-.5-5.4,1.4-1.9,1.1-3.7,2.5-5.2,4.1l.6.6c.6-.6,1.3-1.2,1.9-1.8.4-.4,2.5-1.9,2.7-1.5,0,.2,0,.5-.8,1.5-.6.9-1.1,1.7-.8,2,.3.3.7.1,1.5-.4.6-.4,2.7-1.4,5.9-2.4,3.2-1,4-.6,4.10001-.4,0,.3-1.39999.8-2.3,1.3-.7.4-3.3,1.9-4.7,3l1.39999,2.3c1.39999-.8,6.89999-2.2,7.5-1.2.60001,1.1-5.2,5.2-5.2,5.2l3.7,6.4s8.5-9.7,7.10001-11.9c-1.39999-2.1-6.5-1.7-8.5-1.5-.60001,0-1.2.2-1.3-.1-.2-.3,0-1.5,6.8-3.1,1.5-.4,2.10001-.5,2-1.2,0-.6-1.5-1.1-2.89999-1.1h.20001Z"/>
      </g>
    </g>

  </defs>
</svg>