<svg xmlns="http://www.w3.org/2000/svg" viewBox="0 0 246.207 29.653">
  <defs>
    <g id="logo">
      <path d="M210.258,12.596c2.109,0,3.277-1.468,3.277-3.549,0-2.063-1.168-3.539-3.277-3.539s-3.28,1.477-3.28,3.539c0,2.081,1.167,3.549,3.28,3.549ZM210.258,5.969c.704,0,1.288.438,1.288,3.079,0,2.309-.346,3.098-1.288,3.098s-1.289-.79-1.289-3.098c0-2.641.584-3.079,1.289-3.079ZM47.195,22.576c-.601-.224-1.007-.396-1.219-.514s-.365-.243-.46-.375c-.095-.131-.143-.29-.143-.476,0-.275.127-.491.381-.647s.63-.235,1.13-.235c.567,0,1.2.144,1.898.432l.375-.857c-.715-.305-1.447-.457-2.196-.457-.804,0-1.437.164-1.898.492-.461.328-.692.775-.692,1.342,0,.317.066.59.2.819.133.229.336.433.609.612.272.18.733.391,1.38.632.681.262,1.139.49,1.375.683.234.192.352.424.352.695,0,.36-.148.627-.444.803-.296.175-.719.263-1.27.263-.355,0-.725-.049-1.108-.146-.383-.097-.741-.23-1.076-.4v.978c.516.292,1.236.438,2.158.438.872,0,1.549-.176,2.031-.527s.724-.851.724-1.498c0-.461-.145-.844-.435-1.149-.29-.305-.847-.607-1.672-.908ZM46.848,12.457c.707,0,1.293-.121,1.758-.362v-.933c-.609.25-1.204.375-1.784.375-.677,0-1.188-.229-1.533-.686-.345-.457-.517-1.113-.517-1.968,0-1.803.707-2.704,2.12-2.704.211,0,.455.031.73.092.275.061.529.138.762.231l.324-.895c-.19-.097-.453-.182-.787-.254s-.668-.108-1.003-.108c-1.037,0-1.835.317-2.396.952-.561.635-.841,1.534-.841,2.698,0,1.134.276,2.011.829,2.631.552.62,1.332.93,2.339.93ZM57.328,19.459c-.965,0-1.693.347-2.184,1.041h-.051c.034-.427.051-.91.051-1.447v-2.399h-1.054v9.877h.755l.222-.895h.076c.254.347.568.604.942.771.375.167.789.251,1.241.251.906,0,1.613-.316,2.123-.949.51-.632.765-1.52.765-2.663s-.253-2.026-.758-2.65c-.506-.625-1.216-.937-2.13-.937ZM58.648,25.067c-.317.472-.8.708-1.447.708-.719,0-1.242-.21-1.568-.631-.326-.421-.489-1.121-.489-2.098s.159-1.672.476-2.085c.317-.412.836-.619,1.555-.619.665,0,1.155.222,1.473.667s.476,1.119.476,2.025c0,.884-.159,1.562-.476,2.035ZM52.916,11.587c-.347,0-.62-.112-.819-.336s-.298-.546-.298-.965v-4.094h2.019v-.819h-2.019v-1.612h-.609l-.444,1.485-.997.438v.508h.997v4.139c0,1.417.673,2.126,2.019,2.126.178,0,.378-.018.6-.054.223-.036.391-.082.505-.137v-.806c-.102.03-.239.058-.413.085-.173.028-.354.042-.54.042ZM40.224,19.446c-.478,0-.912.094-1.301.282-.389.188-.692.454-.908.797h-.051l-.171-.952h-.857v6.957h1.054v-3.65c0-.906.169-1.555.508-1.949s.872-.59,1.6-.59c.55,0,.954.14,1.212.419s.387.703.387,1.27v4.5h1.054v-4.539c0-.889-.211-1.535-.635-1.939-.423-.404-1.054-.606-1.892-.606ZM50.905,26.53h1.054v-6.957h-1.054v6.957ZM51.438,16.99c-.178,0-.326.056-.444.168-.119.112-.178.289-.178.53,0,.237.059.414.178.53.119.117.267.175.444.175.169,0,.315-.058.438-.175.123-.116.184-.293.184-.53s-.062-.413-.184-.527-.269-.171-.438-.171ZM194.43,11.992h-.291c-.398,0-.532-.171-.532-.9v-2.477c0-.825,0-2.29,1.272-2.29.85,0,.85.759.85,1.411v3.355c0,.729-.132.9-.529.9h-.293v.388h3.563v-.388h-.293c-.399,0-.532-.171-.532-.9v-3.701c0-1.104-.639-1.883-1.941-1.883-.983,0-1.685.463-2.07,1.112h-.027V2.487h-2.897v.388h.452c.398,0,.53.171.53.898v7.318c0,.729-.132.9-.53.9h-.452v.388h3.721v-.388ZM178.455,12.377c.571,0,1.25.215,1.873.215,1.393.002,2.707-.649,2.707-2.252,0-1.544-.903-1.92-2.082-2.184-1.54-.361-1.886-.456-1.886-1.133,0-.815.664-1.057,1.314-1.057.931,0,1.648.799,1.781,1.674h.426v-2.133h-.08c-.159.112-.359.219-.717.219-.438,0-.863-.212-1.461-.212-1.463-.007-2.621.693-2.621,2.281,0,1.372.972,1.704,1.955,1.931,1.274.293,1.938.482,1.938,1.332,0,.685-.649,1.087-1.326,1.087-1.25,0-1.875-.805-2.141-1.938h-.426v2.387h.08c.132-.09.4-.217.666-.217ZM17.445,22.576c-.601-.224-1.007-.396-1.219-.514s-.365-.243-.46-.375c-.095-.131-.143-.29-.143-.476,0-.275.127-.491.381-.647s.63-.235,1.13-.235c.567,0,1.2.144,1.898.432l.375-.857c-.715-.305-1.447-.457-2.196-.457-.804,0-1.437.164-1.898.492-.461.328-.692.775-.692,1.342,0,.317.066.59.2.819.133.229.336.433.609.612.272.18.733.391,1.38.632.681.262,1.139.49,1.375.683.234.192.352.424.352.695,0,.36-.148.627-.444.803-.296.175-.719.263-1.27.263-.355,0-.725-.049-1.108-.146-.383-.097-.741-.23-1.076-.4v.978c.516.292,1.236.438,2.158.438.872,0,1.549-.176,2.031-.527s.724-.851.724-1.498c0-.461-.145-.844-.435-1.149-.29-.305-.847-.607-1.672-.908ZM10.422,19.446c-.931,0-1.673.33-2.225.99-.553.66-.829,1.551-.829,2.672,0,1.113.297,1.982.892,2.609.594.626,1.406.939,2.434.939.47,0,.871-.035,1.203-.104.333-.07.685-.186,1.057-.346v-.939c-.732.313-1.473.47-2.222.47-.711,0-1.262-.211-1.654-.635-.391-.423-.598-1.043-.619-1.86h4.792v-.667c0-.939-.254-1.696-.762-2.269-.508-.574-1.198-.86-2.069-.86ZM8.486,22.385c.059-.643.255-1.147.587-1.511.332-.364.777-.546,1.336-.546.55,0,.973.177,1.27.53.296.354.444.862.444,1.527h-3.637ZM158.104,12.596c2.112,0,3.281-1.468,3.281-3.549,0-2.063-1.169-3.539-3.281-3.539s-3.279,1.477-3.279,3.539c0,2.081,1.17,3.549,3.279,3.549ZM158.104,5.969c.705,0,1.291.438,1.291,3.079,0,2.309-.346,3.098-1.291,3.098s-1.288-.79-1.288-3.098c0-2.641.585-3.079,1.288-3.079ZM148.463,11.992h-.345c-.648,0-.663-.357-.663-2.056v-2.206h3.34v2.206c0,1.699-.014,2.056-.663,2.056h-.345v.388h4.092v-.388h-.36c-.636,0-.65-.357-.65-2.056v-4.562c0-1.698.014-2.056.664-2.056h.346v-.384h-4.092v.384h.345c.649,0,.663.358.663,2.056v1.897h-3.34v-1.897c0-1.698.015-2.056.663-2.056h.345v-.384h-4.092v.384h.349c.649,0,.664.358.664,2.056v4.562c0,1.699-.015,2.056-.649,2.056h-.363v.388h4.092v-.388ZM31.962,19.446c-1.007,0-1.794.316-2.361.949-.567.632-.851,1.516-.851,2.65,0,.732.131,1.371.394,1.917s.635.965,1.117,1.257,1.035.438,1.657.438c1.007,0,1.796-.318,2.368-.955.571-.637.857-1.522.857-2.657,0-1.104-.287-1.98-.86-2.628-.573-.647-1.347-.971-2.32-.971ZM33.514,25.08c-.358.463-.881.695-1.571.695s-1.212-.233-1.568-.698-.533-1.143-.533-2.031c0-.897.176-1.572.527-2.025s.872-.679,1.562-.679c.698,0,1.226.229,1.584.689.357.459.536,1.131.536,2.015,0,.893-.179,1.571-.536,2.035ZM5.884,19.872c0-.876-.272-1.532-.815-1.968-.544-.436-1.385-.654-2.523-.654H0v9.28h1.079v-3.859h1.936l2.247,3.859h1.276l-2.52-4.17c1.244-.432,1.866-1.261,1.866-2.488ZM2.558,21.744h-1.479v-3.548h1.403c.8,0,1.381.135,1.742.406.362.271.543.713.543,1.327,0,.605-.178,1.059-.533,1.361-.355.303-.914.454-1.676.454ZM31.295,3.05h-1.079v9.28h5.173v-.978h-4.094V3.05ZM187.234,12.595c1.643,0,2.559-.79,2.746-2.432l-.585-.008c-.092,1.088-.557,1.991-1.765,1.991-1.474,0-1.46-1.952-1.46-3.005,0-1.559.066-3.174,1.208-3.174.303,0,.759.254.759.547,0,.161-.188.227-.188.615,0,.531.346.918.889.918.694,0,1.028-.44,1.028-1.077,0-.469-.547-1.462-2.381-1.462-1.593,0-3.387.966-3.387,3.475,0,1.998.983,3.612,3.137,3.612ZM24.408,19.446c-.465,0-.878.084-1.238.254s-.675.444-.946.825h-.051l-.146-.952h-.857v10.08h1.054v-2.863c0-.364-.025-.749-.076-1.155h.076c.254.347.568.604.942.771.375.167.789.251,1.241.251.906,0,1.613-.316,2.123-.949.51-.632.765-1.52.765-2.663s-.25-2.023-.752-2.653c-.501-.63-1.213-.946-2.136-.946ZM25.693,25.045c-.34.487-.811.73-1.412.73-.719,0-1.242-.21-1.568-.631-.326-.421-.489-1.121-.489-2.098v-.235c.008-.859.171-1.485.489-1.879s.832-.59,1.542-.59c.618,0,1.097.232,1.438.695.341.464.511,1.129.511,1.997,0,.855-.17,1.525-.511,2.012ZM39.692,12.457c.47,0,.871-.035,1.203-.104.333-.07.685-.186,1.057-.346v-.939c-.732.313-1.473.47-2.222.47-.711,0-1.262-.211-1.654-.635-.391-.423-.598-1.043-.619-1.86h4.792v-.667c0-.939-.254-1.696-.762-2.269-.508-.574-1.198-.86-2.069-.86-.931,0-1.673.33-2.225.99-.553.66-.829,1.551-.829,2.672,0,1.113.297,1.982.892,2.609.594.626,1.406.939,2.434.939ZM38.071,6.674c.332-.364.777-.546,1.336-.546.55,0,.973.177,1.27.53.296.354.444.862.444,1.527h-3.637c.059-.643.255-1.147.587-1.511ZM216.682,19.782c-.889,0-1.488.731-1.779,1.409h-.053v-1.511c-.453.124-.933.217-1.424.217h-1.396v.385h.451c.398,0,.53.173.53.905v4.078c0,.728-.132.899-.53.899h-.451v.385h4.043v-.385h-.611c-.4,0-.532-.171-.532-.899v-2.297c0-1.419.558-2.284.931-2.284.158,0,.158.068.158.319,0,.695.558.853.878.853.703,0,1.114-.332,1.114-.956,0-.853-.704-1.119-1.327-1.119ZM179.495,25.209l-2.457-6.352c-.24-.608-.439-1.22-.61-1.88h-1.182c-.161.567-.36,1.072-.571,1.575l-2.592,6.218c-.439,1.051-.689,1.394-1.366,1.394v.386h2.87v-.386h-.36c-.453-.012-.719-.198-.719-.558,0-.328.162-.811.348-1.261l.357-.854h3.401l.345.895c.239.611.452,1.134.452,1.381,0,.385-.398.385-.996.398v.386h4.251v-.386h-.278c-.517,0-.73-.53-.89-.955ZM173.397,23.034l1.58-3.794,1.462,3.794h-3.042ZM202.633,12.596c2.112,0,3.281-1.468,3.281-3.549,0-2.063-1.169-3.539-3.281-3.539s-3.278,1.477-3.278,3.539c0,2.081,1.167,3.549,3.278,3.549ZM202.633,5.969c.706,0,1.289.438,1.289,3.079,0,2.309-.344,3.098-1.289,3.098s-1.287-.79-1.287-3.098c0-2.641.583-3.079,1.287-3.079ZM196.617,22.328c-1.541-.361-1.884-.456-1.884-1.133,0-.815.662-1.057,1.311-1.057.933,0,1.652.799,1.782,1.674h.427v-2.133h-.078c-.163.112-.36.219-.72.219-.439,0-.862-.212-1.46-.212-1.462-.007-2.622.693-2.622,2.281,0,1.372.971,1.704,1.956,1.931,1.275.294,1.939.482,1.939,1.332,0,.685-.651,1.087-1.328,1.087-1.249,0-1.874-.805-2.14-1.938h-.427v2.387h.081c.134-.09.398-.217.665-.217.573,0,1.251.215,1.874.215,1.394.002,2.707-.649,2.707-2.252,0-1.544-.901-1.92-2.082-2.184ZM191.77,25.264v-3.701c0-1.104-.641-1.883-1.942-1.883-1.1,0-1.646.356-2.217,1.176-.252-.846-.918-1.176-1.822-1.176-.982,0-1.618.424-2.148,1.176h-.026v-1.176c-.453.124-.933.217-1.425.217h-1.395v.386h.452c.398,0,.532.172.532.905v4.078c0,.728-.134.899-.532.899h-.452v.388h3.721v-.388h-.291c-.398,0-.531-.171-.531-.899v-2.472c0-.831,0-2.296,1.273-2.296.85,0,.85.759.85,1.411v3.355c0,.729-.132.9-.532.9h-.292v.388h3.563v-.388h-.293c-.399,0-.532-.171-.532-.9v-2.477c0-.825,0-2.29,1.274-2.29.85,0,.85.759.85,1.411v3.355c0,.729-.134.9-.532.9h-.291v.388h3.562v-.388h-.293c-.398,0-.531-.171-.531-.9ZM169.122,5.009c-.637-.005-1.169.659-1.887.659-.306-.002-.878-.161-1.597-.161-1.452,0-2.902.661-2.902,2.318,0,.975.613,1.724,1.506,1.986v.012c-.642.199-1.039.741-1.039,1.418,0,.496.24.938.797,1.138v.029c-.679.07-1.551.542-1.551,1.353,0,1.452,1.881,1.713,2.985,1.713,1.593,0,3.701-.604,3.701-2.534,0-1.673-1.402-1.958-2.397-1.958h-1.574c-.677,0-.969-.098-.969-.414,0-.284.184-.534.623-.534,1.724,0,3.789,0,3.789-2.313,0-.68-.308-1.162-.935-1.694.228-.082.388-.133.588-.133.33,0,.105.704.903.704.451,0,.676-.357.676-.757,0-.435-.239-.833-.717-.833ZM165.844,12.565c.785,0,2.074.027,2.074,1.099,0,1.021-1.29,1.354-2.139,1.354-.824,0-2.114-.185-2.114-1.24,0-1.185,1.291-1.212,2.179-1.212ZM165.706,9.577c-1.014,0-1.053-.964-1.053-1.726,0-.747.039-1.883,1.06-1.883.976,0,.976,1.295.976,1.963,0,.655-.108,1.645-.983,1.645ZM173.606,12.596c1.665,0,2.702-.851,2.874-2.49l-.589-.006c-.028,1.056-.705,2.046-1.86,2.046-1.514,0-1.631-1.403-1.631-2.739v-.332h4.207c0-2.065-.783-3.567-3.001-3.567-2.112,0-3.281,1.477-3.281,3.542,0,2.078,1.169,3.546,3.281,3.546ZM173.553,5.969c.981,0,.981,1.28.981,2.721h-2.134c0-1.309.052-2.721,1.153-2.721ZM211.212,23.247c0-2.065-.786-3.567-3.005-3.567-2.11,0-3.281,1.477-3.281,3.542,0,2.078,1.171,3.546,3.281,3.546,1.667,0,2.702-.851,2.875-2.49l-.588-.006c-.029,1.056-.707,2.046-1.86,2.046-1.514,0-1.631-1.403-1.631-2.739v-.332h4.209ZM208.156,20.141c.982,0,.982,1.28.982,2.721h-2.134c0-1.309.052-2.721,1.153-2.721ZM225.099,25.25v-8.588h-2.856v.386h.41c.503,0,.528.237.528.886v2.833h-.025c-.41-.743-1.032-1.087-1.879-1.087-1.939,0-2.576,1.858-2.576,3.561,0,1.619.691,3.525,2.549,3.525.928,0,1.682-.325,1.987-1.177h.025v.959h2.792v-.386h-.424c-.345,0-.53-.114-.53-.914ZM221.791,26.114c-1.018,0-1.018-2.428-1.018-3.08,0-.642,0-2.695,1.005-2.695,1.256,0,1.363,1.84,1.363,2.749,0,.879-.013,3.026-1.35,3.026ZM203.585,24.996c-.014.464-.095.956-.596.956-.61,0-.61-.584-.61-1.382v-4.287h1.389v-.386h-1.389v-2.551h-.398c-.293,1.198-1.132,2.471-2.448,2.551v.386h.93v4.749c0,.898.52,1.737,1.892,1.737,1.204,0,1.73-.58,1.73-1.908v-.291h-.5v.426ZM245.914,26.164c-.396,0-.531-.171-.531-.9v-3.701c0-1.104-.641-1.883-1.943-1.883-1.102,0-1.644.356-2.215,1.176-.252-.846-.918-1.176-1.824-1.176-.979,0-1.615.424-2.146,1.176h-.027v-1.176c-.453.124-.933.217-1.425.217h-1.394v.386h.449c.402,0,.532.172.532.905v4.078c0,.728-.13.899-.532.899h-.449v.388h3.721v-.388h-.291c-.4,0-.531-.171-.531-.899v-2.472c0-.831,0-2.296,1.273-2.296.85,0,.85.759.85,1.411v3.355c0,.729-.134.9-.532.9h-.29v.388h3.56v-.388h-.291c-.399,0-.532-.171-.532-.9v-2.477c0-.825,0-2.29,1.275-2.29.848,0,.848.759.848,1.411v3.355c0,.729-.132.9-.532.9h-.293v.388h3.564v-.388h-.292ZM233.001,26.023c-.214,0-.333-.142-.333-.499v-3.965c0-1.55-1.451-1.879-2.723-1.879-.938,0-2.676.277-2.676,1.533,0,.601.399.99.996.99.518,0,.996-.336.996-.897,0-.375-.293-.616-.293-.764,0-.347.608-.4.898-.4.701,0,.884.495.884,1.086v1.404c-.197-.014-.382-.014-.581-.014-1.447,0-3.359.584-3.359,2.295,0,1.222.944,1.852,2.083,1.852.732,0,1.554-.226,1.938-.884.225.614.917.884,1.449.884,1.633,0,1.646-1.167,1.646-2.049h-.502c0,.608,0,1.307-.425,1.307ZM230.751,24.742c0,1.146-.688,1.373-1.033,1.373-.676,0-.917-.615-.917-1.212,0-1.183.479-1.899,1.553-1.899.119,0,.225.014.397.054v1.685ZM217.134,11.096V2.487h-2.9v.388h.452c.398,0,.532.171.532.901v7.319c0,.725-.134.896-.532.896h-.452v.388h3.884v-.388h-.454c-.396,0-.53-.171-.53-.896ZM166.449,25.264v-3.701c0-1.104-.638-1.883-1.943-1.883-.981,0-1.618.424-2.148,1.176h-.025v-1.176c-.454.124-.933.217-1.425.217h-1.394v.386h.45c.399,0,.531.172.531.905v4.078c0,.728-.132.899-.531.899h-.45v.388h3.72v-.388h-.291c-.397,0-.531-.171-.531-.899v-2.472c0-.831,0-2.296,1.274-2.296.849,0,.849.759.849,1.411v3.355c0,.729-.133.9-.529.9h-.292v.388h3.56v-.388h-.292c-.397,0-.531-.171-.531-.9ZM70.778,5.259c-.411,0-.82.053-1.229.159-.408.106-.784.252-1.126.438l.324.806c.732-.355,1.388-.533,1.968-.533.516,0,.892.13,1.127.39.234.261.352.664.352,1.209v.432l-1.181.038c-2.247.068-3.371.804-3.371,2.209,0,.656.196,1.162.587,1.517.392.355.932.533,1.622.533.516,0,.947-.077,1.292-.231.345-.155.69-.45,1.038-.886h.051l.209.99h.781v-4.748c0-.812-.2-1.403-.6-1.771-.399-.368-1.014-.552-1.844-.552ZM72.168,9.537c0,.647-.187,1.151-.562,1.511-.374.36-.89.54-1.545.54-.415,0-.737-.1-.968-.298-.23-.199-.346-.489-.346-.87,0-.487.185-.845.556-1.076.37-.231.974-.361,1.812-.391l1.054-.044v.628ZM57.96,5.246c-1.007,0-1.794.316-2.361.949-.567.632-.851,1.516-.851,2.65,0,.732.131,1.371.394,1.917s.635.965,1.117,1.257,1.035.438,1.657.438c1.007,0,1.796-.318,2.368-.955.571-.637.857-1.522.857-2.657,0-1.104-.287-1.98-.86-2.628-.573-.647-1.347-.971-2.32-.971ZM59.513,10.88c-.358.463-.881.695-1.571.695s-1.212-.233-1.568-.698-.533-1.143-.533-2.031c0-.897.176-1.572.527-2.025s.872-.679,1.562-.679c.698,0,1.226.229,1.584.689.357.459.536,1.131.536,2.015,0,.893-.179,1.571-.536,2.035ZM79.32,11.34h.051l.209.99h.781v-4.748c0-.812-.2-1.403-.6-1.771-.399-.368-1.014-.552-1.844-.552-.411,0-.82.053-1.229.159-.408.106-.784.252-1.126.438l.324.806c.732-.355,1.388-.533,1.968-.533.516,0,.892.13,1.127.39.234.261.352.664.352,1.209v.432l-1.181.038c-2.247.068-3.371.804-3.371,2.209,0,.656.196,1.162.587,1.517.392.355.932.533,1.622.533.516,0,.947-.077,1.292-.231.345-.155.69-.45,1.038-.886ZM77.2,11.587c-.415,0-.737-.1-.968-.298-.23-.199-.346-.489-.346-.87,0-.487.185-.845.556-1.076.37-.231.974-.361,1.812-.391l1.054-.044v.628c0,.647-.187,1.151-.562,1.511-.374.36-.89.54-1.545.54ZM67.931,19.446c-.931,0-1.673.33-2.225.99-.553.66-.829,1.551-.829,2.672,0,1.113.297,1.982.892,2.609.594.626,1.406.939,2.434.939.47,0,.871-.035,1.203-.104.333-.07.685-.186,1.057-.346v-.939c-.732.313-1.473.47-2.222.47-.711,0-1.262-.211-1.654-.635-.391-.423-.598-1.043-.619-1.86h4.792v-.667c0-.939-.254-1.696-.762-2.269-.508-.574-1.198-.86-2.069-.86ZM65.995,22.385c.059-.643.255-1.147.587-1.511.332-.364.777-.546,1.336-.546.55,0,.973.177,1.27.53.296.354.444.862.444,1.527h-3.637ZM158.106,26.023c-.214,0-.335-.142-.335-.499v-3.965c0-1.55-1.451-1.879-2.722-1.879-.937,0-2.674.277-2.674,1.533,0,.601.396.99.995.99.518,0,.997-.336.997-.897,0-.375-.292-.616-.292-.764,0-.347.607-.4.898-.4.699,0,.884.495.884,1.086v1.404c-.199-.014-.384-.014-.581-.014-1.447,0-3.358.584-3.358,2.295,0,1.222.941,1.852,2.08,1.852.73,0,1.555-.226,1.938-.884.225.614.919.884,1.45.884,1.634,0,1.648-1.167,1.648-2.049h-.502c0,.608,0,1.307-.425,1.307ZM155.857,24.742c0,1.146-.69,1.373-1.034,1.373-.678,0-.915-.615-.915-1.212,0-1.183.476-1.899,1.552-1.899.118,0,.225.014.397.054v1.685ZM66.794,6.3l.146-.978c-.246-.051-.522-.076-.832-.076-.436,0-.836.123-1.2.368s-.675.595-.933,1.047h-.051l-.121-1.289h-.87v6.957h1.054v-3.732c0-.681.2-1.25.6-1.708.4-.457.881-.686,1.444-.686.22,0,.474.032.762.095ZM62.024,26.53h1.054v-9.877h-1.054v9.877ZM76.094,26.53h1.079v-9.28h-1.079v9.28ZM78.661,18.208h2.939v8.322h1.079v-8.322h2.939v-.958h-6.957v.958ZM122.43,15.823c-.554.049-1.204.17-1.341-.103-.152-.304.023-1.521,6.836-3.135,1.515-.356,2.106-.542,2.023-1.211-.069-.574-1.474-1.072-2.905-1.083-1.43-.015-5.767-.099-11.345,2.478-.711.331-1.214.606-1.335.431-.24-.382,1.533-1.887,3.435-2.989.688-.409,1.081-.765.927-1.069-.229-.443-1.592-.535-5.395,1.411-1.948,1.088-3.71,2.477-5.218,4.095l.62.586c.611-.648,1.27-1.246,1.942-1.833.449-.389,2.528-1.944,2.71-1.474.07.188-.062.461-.799,1.468-.642.889-1.064,1.721-.76,1.975.303.257.669.111,1.536-.367.643-.355,2.683-1.436,5.899-2.404,3.216-.959,3.998-.594,4.076-.36.098.316-1.383.84-2.256,1.273-.731.375-3.31,1.889-4.711,3.018,0,0,1.357,2.329,1.363,2.329,1.444-.85,6.946-2.242,7.534-1.235.645,1.103-5.21,5.219-5.21,5.219l3.731,6.412s8.489-9.751,7.136-11.89c-1.365-2.127-6.475-1.734-8.491-1.543ZM149.188,20.282h.32c.239,0,.464.134.464.359,0,.119-.039.266-.105.453l-1.315,3.325h-.027l-1.299-3.392c-.08-.226-.122-.386-.122-.452,0-.239.227-.294.452-.294h.451v-.386h-3.635v.386h.225c.383,0,.424.306.65.88l1.764,4.424c.134.34.253.711.373,1.056h.889c.159-.517.344-1.027.544-1.515l1.619-3.926c.212-.508.361-.919.852-.919v-.386h-2.1v.386ZM109.041,3.988l3.522,6.023c3.299-1.929,7.137-3.031,11.222-3.031s7.934,1.102,11.232,3.031l3.522-6.023c-4.33-2.54-9.371-3.988-14.754-3.988s-10.413,1.448-14.744,3.988ZM84.774,11.587c-.347,0-.62-.112-.819-.336s-.298-.546-.298-.965v-4.094h2.019v-.819h-2.019v-1.612h-.609l-.444,1.485-.997.438v.508h.997v4.139c0,1.417.673,2.126,2.019,2.126.178,0,.378-.018.6-.054.223-.036.391-.082.505-.137v-.806c-.102.03-.239.058-.413.085-.173.028-.354.042-.54.042ZM97.001,29.255h.754V0h-.754v29.255Z"/>
    </g>
  </defs>
</svg>